<svg width="178" height="29" viewBox="0 0 178 29" fill="none" xmlns="http://www.w3.org/2000/svg"><script xmlns="" id="__gaOptOutExtension"/>
<path d="M0 12.7038H4.26118V8.37817H14.2934V4.78572H0V12.7038Z" fill="#FF0000"/>
<path d="M0 24.2143H14.2934V20.6218H4.26118V16.2962H0V24.2143Z" fill="#FF0000"/>
<path d="M4.26118 12.7038H13.436V16.2962H4.26118V12.7038Z" fill="#FF0000"/>
<path d="M32.0614 6.57095C31.4553 5.9988 30.7339 5.55798 29.9439 5.27693C28.9268 4.92492 27.8529 4.75845 26.775 4.78572H17.9469V24.2143H22.2081V16.2962H26.775C27.8479 16.3217 28.9166 16.1553 29.9289 15.805C30.7243 15.5258 31.451 15.0849 32.0614 14.511C32.5918 13.9948 32.9981 13.3686 33.2507 12.6781C33.7477 11.3003 33.7477 9.79632 33.2507 8.4185C32.9991 7.72327 32.5928 7.09206 32.0614 6.57095ZM29.0789 11.6517C28.8604 11.9392 28.5702 12.1664 28.2364 12.3115C27.8482 12.4747 27.4372 12.5798 27.0173 12.6231C26.5397 12.6785 26.0592 12.7054 25.5783 12.7038H22.2081V8.37817H25.582C26.0629 8.37651 26.5435 8.40344 27.0211 8.45882C27.4415 8.5015 27.8527 8.60784 28.2401 8.77408C28.5731 8.91715 28.8623 9.14335 29.0789 9.43025C29.3024 9.7538 29.4148 10.1392 29.3996 10.53C29.4196 10.9282 29.3071 11.322 29.0789 11.6517Z" fill="#FF0000"/>
<path d="M57.9603 20.6218V4.78572H53.6991V24.2143H67.9925V20.6218H57.9603Z" fill="#FF0000"/>
<path d="M36.3189 12.7038H40.58V8.37817H50.6123V4.78572H36.3189V12.7038Z" fill="#FF0000"/>
<path d="M36.3189 16.2962H40.58V24.2143H36.3189V16.2962Z" fill="#FF0000"/>
<path d="M40.58 12.7038H49.7548V16.2962H40.58V12.7038Z" fill="#FF0000"/>
<path d="M99.674 1.00236H88V10.9943H99.674V1.00236Z" fill="#E30613"/>
<path d="M110.744 11.174C107.819 11.174 106.125 9.09072 106.125 5.96393C106.125 2.83715 107.933 0.818878 110.828 0.818878C113.05 0.818878 114.637 2.08794 115.034 4.32027H113.352C113.05 2.96711 112.071 2.25231 110.771 2.25231C109.184 2.25231 107.93 3.54813 107.93 5.96011C107.93 8.37209 109.157 9.73672 110.755 9.73672C112.109 9.73672 113.073 9.03338 113.375 7.66876H115.057C114.644 9.90108 113.042 11.1701 110.74 11.1701L110.744 11.174Z" fill="#1D1D1B"/>
<path d="M119.848 9.80934C120.705 9.80934 121.378 9.46532 121.669 8.77345H123.282C122.938 9.95841 121.833 11.174 119.917 11.174C117.531 11.174 116.166 9.35446 116.166 7.22917C116.166 4.99684 117.696 3.41052 119.806 3.41052C122.081 3.41052 123.504 5.25677 123.366 7.75285H117.837C117.948 9.13276 118.912 9.80934 119.852 9.80934H119.848ZM121.695 6.55641C121.653 5.3982 120.77 4.69487 119.806 4.69487C119.034 4.69487 117.971 5.14974 117.833 6.55641H121.695Z" fill="#1D1D1B"/>
<path d="M128.609 3.41052C130.402 3.41052 131.132 4.56873 131.132 6.33471V10.9943H129.492V6.73225C129.492 5.72694 129.339 4.74838 128.085 4.74838C126.831 4.74838 126.36 5.71165 126.36 7.04951V10.9943H124.72V3.57488H126.36V4.61077C126.789 3.83863 127.572 3.41052 128.609 3.41052Z" fill="#1D1D1B"/>
<path d="M134.719 1.61778V3.57488H136.21V4.75985H134.719V8.80021C134.719 9.55706 134.899 9.73671 135.602 9.73671H136.195V10.9905H134.983C133.396 10.9905 133.079 10.5624 133.079 9.04484V4.75985H131.974V3.57488H133.079V1.61778H134.719Z" fill="#1D1D1B"/>
<path d="M140.723 9.80934C141.579 9.80934 142.252 9.46532 142.543 8.77345H144.156C143.812 9.95841 142.707 11.174 140.791 11.174C138.405 11.174 137.04 9.35446 137.04 7.22917C137.04 4.99684 138.57 3.41052 140.68 3.41052C142.956 3.41052 144.378 5.25677 144.24 7.75285H138.711C138.822 9.13276 139.786 9.80934 140.726 9.80934H140.723ZM142.569 6.55641C142.527 5.3982 141.644 4.69487 140.68 4.69487C139.908 4.69487 138.845 5.14974 138.707 6.55641H142.569Z" fill="#1D1D1B"/>
<path d="M148.86 5.20326C147.823 5.20326 147.231 5.61608 147.231 7.10685V10.9943H145.59V3.57488H147.204V4.89746C147.605 4.0718 148.32 3.57488 149.219 3.55959C149.341 3.55959 149.521 3.57488 149.647 3.58635V5.24148C149.372 5.21472 149.108 5.19943 148.86 5.19943V5.20326Z" fill="#1D1D1B"/>
<path d="M109.115 15.5239H109.765V16.7777H109.295C108.48 16.7777 108.301 16.9306 108.301 17.7028V18.1041H109.761V19.2891H108.301V25.5197H106.66V19.2891H105.624V18.1041H106.66V17.6492C106.66 15.9138 107.322 15.5278 109.115 15.5278V15.5239Z" fill="#1D1D1B"/>
<path d="M113.849 25.6994C112.04 25.6994 110.193 24.4991 110.193 21.8234C110.193 19.1476 112.04 17.9359 113.849 17.9359C115.658 17.9359 117.504 19.1476 117.504 21.8234C117.504 24.4991 115.658 25.6994 113.849 25.6994ZM115.807 21.8234C115.807 20.1147 114.881 19.2738 113.849 19.2738C112.816 19.2738 111.891 20.1147 111.891 21.8234C111.891 23.532 112.816 24.3615 113.849 24.3615C114.881 24.3615 115.807 23.5358 115.807 21.8234Z" fill="#1D1D1B"/>
<path d="M122.124 19.7287C121.087 19.7287 120.495 20.1415 120.495 21.6322V25.5197H118.854V18.1003H120.468V19.4229C120.869 18.5972 121.584 18.1003 122.483 18.085C122.605 18.085 122.785 18.1003 122.911 18.1118V19.7669C122.636 19.7401 122.372 19.7248 122.124 19.7248V19.7287Z" fill="#1D1D1B"/>
<path d="M127.202 25.5197V15.5239H128.953V25.5197H127.202Z" fill="#1D1D1B"/>
<path d="M130.884 25.5197V18.1003H132.524V19.1362C132.953 18.364 133.683 17.9359 134.677 17.9359C135.82 17.9359 136.497 18.4176 136.841 19.247C137.476 18.3105 138.344 17.9359 139.254 17.9359C141.005 17.9359 141.682 19.0941 141.682 20.8601V25.5197H140.042V21.2577C140.042 20.2523 139.946 19.2738 138.73 19.2738C137.514 19.2738 137.101 20.2371 137.101 21.5749V25.5197H135.461V21.2577C135.461 20.2523 135.365 19.2738 134.149 19.2738C132.933 19.2738 132.52 20.2371 132.52 21.5749V25.5197H130.88H130.884Z" fill="#1D1D1B"/>
<path d="M147.949 20.8869V20.7493C147.949 19.4802 147.219 19.0941 146.405 19.0941C145.59 19.0941 144.955 19.5337 144.913 20.432H143.3C143.411 18.9145 144.665 17.8824 146.458 17.8824C148.252 17.8824 149.632 18.6966 149.59 21.0665C149.59 21.4373 149.563 22.3088 149.563 22.9816C149.563 23.9181 149.647 24.8967 149.785 25.5197H148.282C148.229 25.2025 148.171 25.0228 148.144 24.5144C147.674 25.3133 146.791 25.6994 145.705 25.6994C144.091 25.6994 142.959 24.8317 142.959 23.4785C142.959 21.6323 145.235 21.1621 147.953 20.8869H147.949ZM144.695 23.4365C144.695 24.0863 145.235 24.4724 146.061 24.4724C147.273 24.4724 147.992 23.8531 147.992 22.5955V22.0298C145.648 22.2515 144.695 22.5802 144.695 23.4365Z" fill="#1D1D1B"/>
<path d="M157.815 18.1003V24.7743C157.815 25.9861 157.513 26.8423 156.92 27.3927C156.327 27.9432 155.444 28.1916 154.286 28.1916C152.657 28.1916 151.36 27.5418 151.112 25.9172H152.741C152.894 26.6053 153.349 26.8958 154.328 26.8958C155.058 26.8958 155.528 26.6894 155.804 26.3568C156.079 26.0396 156.174 25.5847 156.174 25.1031V24.2354C155.735 24.9655 154.962 25.3936 153.968 25.3936C152.217 25.3936 150.741 23.9716 150.741 21.6552C150.741 19.3388 152.217 17.9321 153.968 17.9321C154.962 17.9321 155.735 18.3602 156.174 19.0903V18.0965H157.815V18.1003ZM152.45 21.659C152.45 23.1765 153.238 24.0977 154.328 24.0977C155.417 24.0977 156.243 23.3256 156.243 21.659C156.243 19.9924 155.402 19.247 154.328 19.247C153.253 19.247 152.45 20.1721 152.45 21.659Z" fill="#1D1D1B"/>
<path d="M161.291 17.1753H159.65V15.5201H161.291V17.1753ZM161.291 25.5159H159.65V18.0965H161.291V25.5159Z" fill="#1D1D1B"/>
<path d="M167.03 17.9359C168.824 17.9359 169.554 19.0941 169.554 20.8601V25.5197H167.914V21.2577C167.914 20.2523 167.761 19.2738 166.506 19.2738C165.252 19.2738 164.782 20.2371 164.782 21.5749V25.5197H163.141V18.1003H164.782V19.1362C165.21 18.364 165.994 17.9359 167.03 17.9359Z" fill="#1D1D1B"/>
<path d="M177.832 18.1003V24.7743C177.832 25.9861 177.53 26.8423 176.938 27.3927C176.345 27.9432 175.462 28.1916 174.303 28.1916C172.674 28.1916 171.378 27.5418 171.129 25.9172H172.758C172.911 26.6053 173.366 26.8958 174.345 26.8958C175.075 26.8958 175.546 26.6894 175.821 26.3568C176.096 26.0396 176.192 25.5847 176.192 25.1031V24.2354C175.752 24.9655 174.98 25.3936 173.986 25.3936C172.234 25.3936 170.758 23.9716 170.758 21.6552C170.758 19.3388 172.234 17.9321 173.986 17.9321C174.98 17.9321 175.752 18.3602 176.192 19.0903V18.0965H177.832V18.1003ZM172.468 21.659C172.468 23.1765 173.255 24.0977 174.345 24.0977C175.435 24.0977 176.261 23.3256 176.261 21.659C176.261 19.9924 175.42 19.247 174.345 19.247C173.271 19.247 172.468 20.1721 172.468 21.659Z" fill="#1D1D1B"/>
</svg>